<svg id="exportSVG" visibility="visible" xmlns="http://www.w3.org/2000/svg" xmlns:xlink="http://www.w3.org/1999/xlink" version="1.1" data-info="draw.ninja" data-name="avatar" viewBox="0 0 500 450" width="500" height="450" style="position: fixed; top: 0px; left: 0px;"><defs id="defsExport"><filter id="filter0"><feGaussianBlur stdDeviation="0"></feGaussianBlur></filter><pattern id="patternImage" patternUnits="userSpaceOnUse" x="0" y="0" width="1" height="1" data-x="0" data-y="0" data-width="1" data-height="1" data-multx="1" data-multy="1" patternTransform="matrix(1,0,0,1,0,0)" data-transs="0" data-transf="0" data-source="patternImage" data-draw="1" fill="#B3B3B3" fill-opacity="1"></pattern><pattern id="pattern0" patternUnits="userSpaceOnUse" x="0" y="0" width="10" height="10" data-x="0" data-y="0" data-width="10" data-height="10" data-multx="1" data-multy="1" stroke="none" patternTransform="matrix(1,0,0,1,0,0)" data-transs="0" data-transf="0" data-source="Pattern 0" data-draw="1" fill="#B3B3B3" fill-opacity="1"><path transform="matrix(1,0,0,1,0,0)" d="M0 0 L5 0 L5 5 L0 5 L0 0 Z"></path></pattern><pattern id="pattern1" patternUnits="userSpaceOnUse" x="0" y="0" width="10" height="10" data-x="0" data-y="0" data-width="10" data-height="10" data-multx="1" data-multy="1" stroke="none" patternTransform="matrix(1,0,0,1,0,0)" data-transs="0" data-transf="0" data-source="Pattern 1" data-draw="1" fill="#B3B3B3" fill-opacity="1"><path transform="matrix(1,0,0,1,0,0)" d="M0 5 L5 0 L10 5 L5 10 L0 5 Z"></path></pattern><pattern id="pattern2" patternUnits="userSpaceOnUse" x="0" y="0" width="10" height="10" data-x="0" data-y="0" data-width="10" data-height="10" data-multx="1" data-multy="1" stroke="none" patternTransform="matrix(1,0,0,1,0,0)" data-transs="0" data-transf="0" data-source="Pattern 2" data-draw="1" fill="#B3B3B3" fill-opacity="1"><path transform="matrix(1,0,0,1,0,0)" d="M0 9 L5 1 L10 9 L0 9 Z"></path></pattern><pattern id="pattern3" patternUnits="userSpaceOnUse" x="0" y="0" width="10" height="10" data-x="0" data-y="0" data-width="10" data-height="10" data-multx="1" data-multy="1" stroke="none" patternTransform="matrix(1,0,0,1,0,0)" data-transs="0" data-transf="0" data-source="Pattern 3" data-draw="1" fill="#B3B3B3" fill-opacity="1"><path transform="matrix(1,0,0,1,0,0)" d="M0 5 C0 2.25 2.25 0 5 0 C7.75 0 10 2.25 10 5 C10 7.75 7.75 10 5 10 C2.25 10 0 7.75 0 5 Z"></path></pattern><pattern id="pattern4" patternUnits="userSpaceOnUse" x="0" y="0" width="10" height="10" data-x="0" data-y="0" data-width="10" data-height="10" data-multx="1" data-multy="1" stroke="none" patternTransform="matrix(1,0,0,1,0,0)" data-transs="0" data-transf="0" data-source="Pattern 4" data-draw="1" fill="#B3B3B3" fill-opacity="1"><path transform="matrix(1,0,0,1,0,0)" d="M0 5 L4 4 L5 0 L6 4 L10 5 L6 6 L5 10 L4 6 L0 5 Z"></path></pattern><pattern id="pattern5" patternUnits="userSpaceOnUse" x="0" y="0" width="10" height="10" data-x="0" data-y="0" data-width="10" data-height="10" data-multx="1" data-multy="1" stroke="none" patternTransform="matrix(1,0,0,1,0,0)" data-transs="0" data-transf="0" data-source="Pattern 5" data-draw="1" fill="#B3B3B3" fill-opacity="1"><path transform="matrix(1,0,0,1,0,0)" d="M5 10 C-5 2.75 3 -1.75 5 1 C7 -1.75 15 2.75 5 10 Z"></path></pattern><pattern id="pattern6" patternUnits="userSpaceOnUse" x="0" y="0" width="10" height="10" data-x="0" data-y="0" data-width="10" data-height="10" data-multx="1" data-multy="1" stroke="none" patternTransform="matrix(1,0,0,1,0,0)" data-transs="0" data-transf="0" data-source="Pattern 6" data-draw="1" fill="#B3B3B3" fill-opacity="1"><path transform="matrix(1,0,0,1,0,0)" d="M3 0 L7 0 L7 10 L3 10 L3 0 Z"></path></pattern><pattern id="pattern7" patternUnits="userSpaceOnUse" x="0" y="0" width="10" height="10" data-x="0" data-y="0" data-width="10" data-height="10" data-multx="1" data-multy="1" stroke="none" patternTransform="matrix(1,0,0,1,0,0)" data-transs="0" data-transf="0" data-source="Pattern 7" data-draw="1" fill="#B3B3B3" fill-opacity="1"><path transform="matrix(1,0,0,1,0,0)" d="M10 3 L10 7 L0 7 L0 3 L10 3 Z"></path></pattern><pattern id="pattern8" patternUnits="userSpaceOnUse" x="0" y="0" width="10" height="10" data-x="0" data-y="0" data-width="10" data-height="10" data-multx="1" data-multy="1" stroke="none" patternTransform="matrix(1,0,0,1,0,0)" data-transs="0" data-transf="0" data-source="Pattern 8" data-draw="1" fill="#B3B3B3" fill-opacity="1"><path transform="matrix(1,0,0,1,0,0)" d="M0 10 L3 3 L10 0 L7 7 L0 10 Z"></path></pattern><pattern id="pattern9" patternUnits="userSpaceOnUse" x="0" y="0" width="10" height="10" data-x="0" data-y="0" data-width="10" data-height="10" data-multx="1" data-multy="1" stroke="none" patternTransform="matrix(1,0,0,1,0,0)" data-transs="0" data-transf="0" data-source="Pattern 9" data-draw="1" fill="#B3B3B3" fill-opacity="1"><path transform="matrix(1,0,0,1,0,0)" d="M0 4 L10 4 L10 6 L0 6 L0 4 Z M4 10 L4 0 L6 0 L6 10 L4 10 Z"></path></pattern><linearGradient id="linearSystem" gradientUnits="objectBoundingBox" x1="0%" y1="50%" x2="100%" y2="50%" spreadMethod="pad"><stop offset="50%" stop-color="#D0D0D0" stop-opacity="1"></stop><stop offset="100%" stop-color="transparent" stop-opacity="1"></stop></linearGradient><linearGradient id="linearSystem1" gradientUnits="objectBoundingBox" x1="0%" y1="50%" x2="100%" y2="50%" spreadMethod="pad"><stop offset="30%" stop-color="#D0D0D0" stop-opacity="1"></stop><stop offset="100%" stop-color="transparent" stop-opacity="1"></stop></linearGradient><linearGradient id="linearSystem2" gradientUnits="objectBoundingBox" x1="0%" y1="50%" x2="50%" y2="50%" spreadMethod="repeat"><stop offset="30%" stop-color="#D0D0D0" stop-opacity="1"></stop><stop offset="100%" stop-color="transparent" stop-opacity="1"></stop></linearGradient><linearGradient id="linearSystem3" gradientUnits="objectBoundingBox" x1="0%" y1="50%" x2="50%" y2="50%" spreadMethod="reflect"><stop offset="30%" stop-color="#D0D0D0" stop-opacity="1"></stop><stop offset="100%" stop-color="transparent" stop-opacity="1"></stop></linearGradient><radialGradient id="radialSystem" gradientUnits="objectBoundingBox" r="0.5" cx="0.5" fx="0.5" cy="0.5" fy="0.5" spreadMethod="pad"><stop offset="50%" stop-color="#D0D0D0" stop-opacity="1"></stop><stop offset="100%" stop-color="transparent" stop-opacity="1"></stop></radialGradient><pattern id="patternSystem" patternUnits="userSpaceOnUse" x="0" y="0" width="6" height="8"><path stroke="#D0D0D0" stroke-width="5" fill="none" d="M0 0 L0 10"></path></pattern><linearGradient id="linear0" gradientUnits="objectBoundingBox" x1="0%" y1="50%" x2="100%" y2="50%" spreadMethod="pad"><stop offset="0%" stop-color="#FF8000" stop-opacity="1"></stop><stop offset="100%" stop-color="#FFFF00" stop-opacity="1"></stop></linearGradient><linearGradient id="linear1" gradientUnits="objectBoundingBox" x1="0%" y1="50%" x2="100%" y2="50%" spreadMethod="pad"><stop offset="0%" stop-color="#FFFF00" stop-opacity="1"></stop><stop offset="100%" stop-color="#FF8000" stop-opacity="1"></stop></linearGradient><linearGradient id="linearImport" gradientUnits="objectBoundingBox" x1="0%" y1="50%" x2="100%" y2="50%" spreadMethod="pad"><stop offset="0%" stop-color="#FFFFFF" stop-opacity="0.1"></stop><stop offset="100%" stop-color="#000000" stop-opacity="0.1"></stop></linearGradient><radialGradient id="radial0" gradientUnits="objectBoundingBox" r="0.5" cx="0.5" fx="0.5" cy="0.5" fy="0.5" spreadMethod="pad"><stop offset="0%" stop-color="#FF8000" stop-opacity="1"></stop><stop offset="100%" stop-color="#FFFF00" stop-opacity="1"></stop></radialGradient><radialGradient id="radial1" gradientUnits="objectBoundingBox" r="0.5" cx="0.5" fx="0.5" cy="0.5" fy="0.5" spreadMethod="pad"><stop offset="0%" stop-color="#FFFF00" stop-opacity="1"></stop><stop offset="100%" stop-color="#FF8000" stop-opacity="1"></stop></radialGradient><radialGradient id="radialImport" gradientUnits="objectBoundingBox" r="0.5" cx="0.5" fx="0.5" cy="0.5" fy="0.5" spreadMethod="pad"><stop offset="0%" stop-color="#FFFFFF" stop-opacity="0.1"></stop><stop offset="100%" stop-color="#000000" stop-opacity="0.1"></stop></radialGradient></defs><rect id="pageExport" x="0" y="0" width="500" height="450" fill="none" fill-opacity="0" stroke="none" stroke-width="0"></rect><g id="objectsExport" visibility="visible"><path id="path11" visibility="visible" stroke="#000000" stroke-width="2" stroke-opacity="1" stroke-linecap="round" stroke-linejoin="round" stroke-dasharray="none" marker-start="none" marker-end="none" fill="none" fill-rule="evenodd" fill-opacity="1" data-name="curve" data-title="curve" deg="0" data-sw="2" data-grad="0" data-group="0" data-edit="1" filter="none" d="M-145 469 C-145 469 -145 469 -145 469 " data-centerx="-145" data-centery="469"></path><path id="path12" visibility="visible" stroke="#000000" stroke-width="2" stroke-opacity="1" stroke-linecap="round" stroke-linejoin="round" stroke-dasharray="none" marker-start="none" marker-end="none" fill="none" fill-rule="evenodd" fill-opacity="1" data-name="curve" data-title="curve" deg="0" data-sw="2" data-grad="0" data-group="0" data-edit="1" filter="none" d="M-525.333 55.667 C-525.333 55.667 -525.333 55.667 -525.333 55.667 " data-centerx="-525.333" data-centery="55.667"></path><path id="path13" visibility="visible" stroke="#000000" stroke-width="2" stroke-opacity="1" stroke-linecap="round" stroke-linejoin="round" stroke-dasharray="none" marker-start="none" marker-end="none" fill="#FFFFFF" fill-rule="evenodd" fill-opacity="1" data-name="curve" data-title="curve" deg="0" data-sw="2" data-grad="0" data-group="0" data-edit="1" filter="none" d="M54.666 153.167 C54.666 121.634 82.566 95.834 116.666 95.834 C150.766 95.834 178.666 121.634 178.666 153.167 C178.666 184.7 150.766 210.5 116.666 210.5 C82.566 210.5 54.666 184.7 54.666 153.167 Z " data-centerx="116.669" data-centery="153.168"></path><path id="path14" visibility="visible" stroke="#000000" stroke-width="2" stroke-opacity="1" stroke-linecap="round" stroke-linejoin="round" stroke-dasharray="none" marker-start="none" marker-end="none" fill="#FFFFFF" fill-rule="evenodd" fill-opacity="1" data-name="curve" data-title="curve" deg="0" data-sw="2" data-grad="0" data-group="0" data-edit="1" filter="none" d="M312 153.833 C312 121.933 338.7 95.833 371.334 95.833 C403.966 95.833 430.666 121.933 430.666 153.833 C430.666 185.732 403.966 211.832 371.334 211.832 C338.7 211.832 312 185.732 312 153.833 Z " data-centerx="371.333" data-centery="153.835"></path><path id="path15" visibility="visible" stroke="#000000" stroke-width="2" stroke-opacity="1" stroke-linecap="round" stroke-linejoin="round" stroke-dasharray="none" marker-start="none" marker-end="none" fill="#804040" fill-rule="evenodd" fill-opacity="1" data-name="curve" data-title="curve" deg="0" data-sw="2" data-grad="0" data-group="0" data-edit="1" filter="none" d="M158.667 304.499 C158.667 273.333 193.167 247.833 235.333 247.833 C277.5 247.833 312 273.333 312 304.499 C312 335.666 277.5 361.166 235.333 361.166 C193.167 361.166 158.667 335.666 158.667 304.499 Z " data-centerx="235.34" data-centery="304.501"></path><path id="path23" visibility="visible" stroke="#000000" stroke-width="2" stroke-opacity="1" stroke-linecap="round" stroke-linejoin="round" stroke-dasharray="none" marker-start="none" marker-end="none" fill="#000000" fill-rule="evenodd" fill-opacity="1" data-name="curve" data-title="curve" deg="0" data-sw="2" data-grad="0" data-group="0" data-edit="1" filter="none" d="M100.667 156.5 C100.667 146.233 109.367 137.833 120.001 137.833 C130.633 137.833 139.333 146.233 139.333 156.5 C139.333 166.767 130.633 175.167 120.001 175.167 C109.367 175.167 100.667 166.767 100.667 156.5 Z " data-centerx="120.001" data-centery="156.5"></path><path id="path24" visibility="visible" stroke="#000000" stroke-width="2" stroke-opacity="1" stroke-linecap="round" stroke-linejoin="round" stroke-dasharray="none" marker-start="none" marker-end="none" fill="#000000" fill-rule="evenodd" fill-opacity="1" data-name="curve" data-title="curve" deg="0" data-sw="2" data-grad="0" data-group="0" data-edit="1" filter="none" d="M354 156.5 C354 146.967 362.4 139.167 372.666 139.167 C382.933 139.167 391.333 146.967 391.333 156.5 C391.333 166.033 382.933 173.833 372.666 173.833 C362.4 173.833 354 166.033 354 156.5 Z " data-centerx="372.666" data-centery="156.5"></path></g><g id="settings" visibility="hidden" data-dn0="primalDraw" data-dn1="#FAFAFA" data-dn2="#D2D2D2" data-dn3="18" data-dn4="#000000" data-dn5="#B3B3B3" data-dn6="1" data-dn7="1" data-dn8="2" data-dn9="round" data-dn10="round" data-dn11="none" data-dn12="none" data-dn13="none" data-dn14="evenodd" data-dn15="10" data-dn16="0" data-dn17="500" data-dn18="450" data-dn19="10" data-dn20="0" data-dn21="1" data-dn22="1" data-dn23="25" data-dn24="path11,path12,path13,path14,path15,path23,path24" data-dn25="2" data-dn26="url(#linear0)" data-dn27="url(#linear1)" data-dn28="url(#radial0)" data-dn29="url(#radial1)" data-dn30="#FF8000" data-dn31="#FFFF00" data-dn32="#000000" data-dn33="1" data-dn34="1" data-dn35="10" data-dn36="" data-dn37="0" data-dn38="69"></g></svg>